<svg width="238" height="49" viewBox="0 0 238 49" fill="none" xmlns="http://www.w3.org/2000/svg">
<path d="M0.9375 3.03152H26.0918L26.5755 13.0932H25.7048C24.5116 9.61033 23.1248 7.24002 21.5446 5.98231C19.9967 4.72459 17.6748 4.09574 14.5788 4.09574H13.2244V19.8172H15.4012C16.9492 19.8172 18.2391 19.2528 19.2711 18.1241C20.3031 16.9954 21.0125 15.4474 21.3995 13.4802H22.1251V27.7988H21.3028C20.7868 25.3801 20.0612 23.6548 19.126 22.6228C18.223 21.5908 16.9814 21.0749 15.4012 21.0749H13.2244V35.8288H19.2227V36.893H0.9375V35.8288H3.79154V4.09574H0.9375V3.03152Z" fill="black"/>
<path d="M42.2482 27.3634V23.2517C42.2482 20.1235 42.0708 17.85 41.716 16.431C41.3936 14.9798 40.6196 14.2542 39.3941 14.2542C38.6846 14.2542 38.1042 14.4638 37.6527 14.883C37.2334 15.27 36.9271 15.9311 36.7336 16.8664C36.4433 18.3176 36.2982 20.5266 36.2982 23.4935V27.2667C36.2982 30.7818 36.395 32.8941 36.5884 33.6036C36.8142 34.3131 37.0399 34.8936 37.2657 35.3451C37.6204 36.119 38.3138 36.506 39.3457 36.506C40.6035 36.506 41.4258 35.7804 41.8128 34.3292C42.103 33.2973 42.2482 30.9753 42.2482 27.3634ZM39.249 37.3768C35.2179 37.3768 32.1703 36.3448 30.1064 34.2808C28.0424 32.2169 27.0105 29.2661 27.0105 25.4285C27.0105 21.5586 28.1069 18.5917 30.2999 16.5277C32.5251 14.4316 35.6371 13.3835 39.636 13.3835C43.6349 13.3835 46.6179 14.3509 48.5851 16.2859C50.5523 18.1886 51.5359 21.1071 51.5359 25.0415C51.5359 33.265 47.4403 37.3768 39.249 37.3768Z" fill="black"/>
<path d="M72.2866 11.3518L73.6411 10.5294C73.8346 9.5297 73.4476 9.02984 72.4801 9.02984C71.0934 9.02984 70.4001 10.0941 70.4001 12.2225C70.4001 13.061 70.5129 14.0284 70.7387 15.1249C73.1896 16.7696 74.4151 18.8819 74.4151 21.4619C74.4151 24.0095 73.5282 25.9928 71.7545 27.4118C69.9808 28.8308 67.5783 29.5402 64.5469 29.5402C63.2891 29.5402 61.9831 29.4112 60.6286 29.1533C59.2096 30.0562 58.5002 30.7335 58.5002 31.1849C58.5002 31.6364 59.5321 31.8622 61.5961 31.8622H66.5302C73.8507 31.8622 77.511 34.4905 77.511 39.7471C77.511 42.585 76.3984 44.8263 74.1732 46.471C71.9803 48.1479 68.5457 48.9864 63.8696 48.9864C55.9041 48.9864 51.9214 47.2611 51.9214 43.8104C51.9214 41.94 53.1629 40.65 55.6461 39.9406L58.5485 41.2466C58.2905 42.1819 58.1615 43.0687 58.1615 43.9072C58.1615 46.6806 60.2255 48.0673 64.3534 48.0673C66.8688 48.0673 68.8037 47.5997 70.1582 46.6645C71.5126 45.7293 72.1899 44.5683 72.1899 43.1816C72.1899 41.7949 71.7706 40.8597 70.9322 40.3759C70.1259 39.9244 68.4974 39.6987 66.0464 39.6987H61.3542C58.742 39.6987 56.8716 39.2633 55.7429 38.3926C54.6142 37.5219 54.0498 36.4577 54.0498 35.1999C54.0498 33.91 54.4529 32.8458 55.2591 32.0073C56.0654 31.1366 57.5004 30.0723 59.5644 28.8146C55.8235 27.7504 53.953 25.2995 53.953 21.4619C53.953 19.0432 54.8238 17.0921 56.5652 15.6086C58.3067 14.1252 60.9188 13.3835 64.4017 13.3835C66.4979 13.3835 68.2878 13.7866 69.7712 14.5928C69.5777 13.7221 69.481 12.932 69.481 12.2225C69.481 10.4166 69.9647 9.11046 70.9322 8.30424C71.8996 7.49801 72.98 7.0949 74.1732 7.0949C75.3664 7.0949 76.3178 7.41739 77.0272 8.06237C77.769 8.6751 78.1398 9.5297 78.1398 10.6262C78.1398 11.7226 77.8496 12.545 77.2691 13.0932C76.6886 13.6092 75.9791 13.8672 75.1407 13.8672C74.3344 13.8672 73.6572 13.6576 73.109 13.2383C72.593 12.7869 72.3189 12.158 72.2866 11.3518ZM62.0314 20.3976V23.0098C62.0314 25.1705 62.2088 26.6378 62.5635 27.4118C62.9505 28.1858 63.5149 28.5728 64.2566 28.5728C65.0306 28.5728 65.5788 28.2019 65.9013 27.4602C66.2561 26.6862 66.4334 25.1221 66.4334 22.7679V20.3976C66.4334 17.8822 66.2722 16.2375 65.9497 15.4635C65.6272 14.6573 65.079 14.2542 64.305 14.2542C63.5633 14.2542 62.9989 14.6734 62.6119 15.5119C62.2249 16.3181 62.0314 17.9467 62.0314 20.3976Z" fill="black"/>
<path d="M95.8185 23.8805C95.8185 20.5589 95.6572 18.3337 95.3347 17.205C95.0123 16.044 94.3834 15.4635 93.4482 15.4635C92.513 15.4635 91.6745 16.044 90.9328 17.205C90.191 18.3659 89.8202 19.9623 89.8202 21.994V30.9914C89.8202 32.3782 90.0943 33.5552 90.6425 34.5227C91.223 35.4902 92.0292 35.9739 93.0612 35.9739C94.1254 35.9739 94.851 35.2644 95.238 33.8455C95.625 32.4265 95.8185 29.9434 95.8185 26.396V23.8805ZM89.8202 0.612839V17.5436C91.0456 14.7702 93.1418 13.3835 96.1087 13.3835C102.139 13.3835 105.155 17.3985 105.155 25.4285C105.155 29.5241 104.316 32.5394 102.639 34.4743C100.994 36.4093 98.5113 37.3768 95.1896 37.3768C93.5127 37.3768 92.2227 37.1188 91.3197 36.6028C90.449 36.0868 89.8524 35.2322 89.5299 34.039L89.1913 36.893H78.1621V36.0223H80.8227V1.48356H78.1621V0.612839H89.8202Z" fill="black"/>
<path d="M119.323 37.3768C115.163 37.3768 112.034 36.3125 109.938 34.1841C107.874 32.0234 106.842 29.0404 106.842 25.235C106.842 21.3974 108.003 18.4627 110.325 16.431C112.679 14.3993 115.662 13.3835 119.274 13.3835C126.595 13.3835 130.11 17.0599 129.82 24.4126H116.178V26.2992C116.178 29.4596 116.582 31.846 117.388 33.4585C118.194 35.071 119.597 35.8772 121.596 35.8772C125.337 35.8772 127.788 33.8777 128.949 29.8789L129.82 30.024C129.207 32.3459 128.094 34.1519 126.482 35.4418C124.902 36.7318 122.515 37.3768 119.323 37.3768ZM116.227 23.4452H121.209V21.0749C121.209 18.4627 121.048 16.689 120.726 15.7538C120.435 14.7863 119.823 14.3026 118.887 14.3026C117.984 14.3026 117.307 14.8185 116.856 15.8505C116.436 16.8502 116.227 18.5917 116.227 21.0749V23.4452Z" fill="black"/>
<path d="M131.64 13.8672H143.298V18.3176C143.814 16.8341 144.604 15.6409 145.668 14.7379C146.732 13.835 148.345 13.3835 150.506 13.3835C155.504 13.3835 158.003 16.0763 158.003 21.4619V36.0223H160.712V36.893H147.023V36.0223H149.006V20.3009C149.006 18.3659 148.877 17.1244 148.619 16.5761C148.361 15.9956 147.893 15.7054 147.216 15.7054C146.184 15.7054 145.265 16.3826 144.459 17.7371C143.685 19.0915 143.298 20.7362 143.298 22.6712V36.0223H145.378V36.893H131.64V36.0223H134.3V14.7379H131.64V13.8672Z" fill="black"/>
<path d="M171.171 26.8797C171.171 30.2658 171.349 32.5233 171.703 33.652C172.058 34.7485 172.703 35.2967 173.638 35.2967C174.606 35.2967 175.428 34.8775 176.105 34.039C176.815 33.2005 177.17 31.9589 177.17 30.3142V19.7688C177.17 18.3821 176.895 17.205 176.347 16.2375C175.799 15.27 174.993 14.7863 173.929 14.7863C172.864 14.7863 172.139 15.4958 171.752 16.9147C171.365 18.3337 171.171 20.8169 171.171 24.3643V26.8797ZM177.798 36.893L177.266 33.5069C176.17 36.0868 173.945 37.3768 170.591 37.3768C167.817 37.3768 165.657 36.377 164.109 34.3776C162.593 32.3782 161.835 29.3951 161.835 25.4285C161.835 17.3985 165.028 13.3835 171.413 13.3835C174.251 13.3835 176.122 14.1736 177.024 15.7538V1.48356H174.074V0.612839H186.167V36.0223H188.537V36.893H177.798Z" fill="black"/>
<path d="M202.512 37.3768C198.352 37.3768 195.224 36.3125 193.128 34.1841C191.064 32.0234 190.032 29.0404 190.032 25.235C190.032 21.3974 191.193 18.4627 193.515 16.431C195.869 14.3993 198.852 13.3835 202.464 13.3835C209.784 13.3835 213.299 17.0599 213.009 24.4126H199.368V26.2992C199.368 29.4596 199.771 31.846 200.577 33.4585C201.383 35.071 202.786 35.8772 204.786 35.8772C208.527 35.8772 210.977 33.8777 212.138 29.8789L213.009 30.024C212.396 32.3459 211.284 34.1519 209.671 35.4418C208.091 36.7318 205.705 37.3768 202.512 37.3768ZM199.416 23.4452H204.399V21.0749C204.399 18.4627 204.237 16.689 203.915 15.7538C203.625 14.7863 203.012 14.3026 202.077 14.3026C201.174 14.3026 200.496 14.8185 200.045 15.8505C199.626 16.8502 199.416 18.5917 199.416 21.0749V23.4452Z" fill="black"/>
<path d="M230.889 15.2217C229.696 15.2217 228.648 15.9956 227.745 17.5436C226.842 19.0915 226.39 20.9297 226.39 23.0582V36.0223H229.825V36.893H214.732V36.0223H217.393V14.7379H214.732V13.8672H226.39V18.5111C226.81 16.8664 227.616 15.6086 228.809 14.7379C230.002 13.835 231.357 13.3835 232.873 13.3835C234.388 13.3835 235.614 13.8188 236.549 14.6896C237.516 15.528 238 16.7374 238 18.3176C238 19.8655 237.645 21.0587 236.936 21.8972C236.226 22.7357 235.13 23.1549 233.646 23.1549C232.195 23.1549 231.115 22.6712 230.405 21.7037C229.728 20.7362 229.648 19.3979 230.164 17.6887H231.905C232.711 16.044 232.373 15.2217 230.889 15.2217Z" fill="black"/>
</svg>
