<svg viewBox="215 360 590 40" xmlns="http://www.w3.org/2000/svg" height="60" width="400"><g text-anchor="middle"><g style="line-height:1;font-variant-ligatures:none;text-align:center" aria-label="Diesel Engine, Inc." font-weight="800" font-size="72" font-family="Montserrat ExtraBold Alt1" fill="#dd5822"><path style="line-height:1;font-variant-ligatures:none;text-align:center" d="M267.423 371.337c-1.782-2.808-4.266-5.022-7.452-6.588-3.24-1.512-6.912-2.322-11.016-2.322h-17.874v8.532h17.442c3.24 0 5.832.918 7.776 2.754 1.944 1.89 2.97 4.428 2.97 7.614 0 3.24-1.026 5.778-2.97 7.614-1.944 1.836-4.536 2.754-7.776 2.754h-6.75v-10.044h-10.692v18.576h17.874c4.104 0 7.776-.756 11.016-2.322 3.186-1.512 5.67-3.726 7.452-6.588 1.728-2.808 2.646-6.156 2.646-9.99 0-3.78-.918-7.128-2.646-9.99zM277.458 370.959v29.268h10.26v-29.268zm.594-4.806c1.134 1.08 2.646 1.566 4.536 1.566 1.836 0 3.348-.486 4.536-1.566 1.134-1.08 1.728-2.43 1.728-4.05 0-1.512-.594-2.808-1.728-3.78-1.188-.972-2.7-1.512-4.536-1.512-1.89 0-3.402.54-4.536 1.566-1.188 1.08-1.728 2.376-1.728 3.888 0 1.566.54 2.862 1.728 3.888zM326.337 388.185c.108-1.62.162-2.43.162-2.538 0-3.132-.702-5.832-2.106-8.1s-3.24-4.05-5.616-5.238c-2.376-1.188-5.022-1.836-7.938-1.836-3.078 0-5.832.648-8.262 1.944-2.484 1.296-4.374 3.132-5.778 5.4-1.404 2.268-2.052 4.86-2.052 7.722 0 2.916.702 5.562 2.106 7.83 1.404 2.322 3.456 4.104 6.048 5.4 2.592 1.296 5.562 1.944 9.018 1.944 5.454 0 9.612-1.566 12.474-4.752l-5.4-5.616c-1.08.918-2.106 1.566-3.132 1.944-1.026.432-2.214.594-3.618.594-1.89 0-3.456-.378-4.698-1.188-1.242-.81-2.052-1.998-2.484-3.51zm-19.44-9.072c1.08-.864 2.376-1.35 3.996-1.35 1.566 0 2.862.486 3.942 1.35 1.08.918 1.728 2.16 2.052 3.672H304.9c.27-1.512.918-2.754 1.998-3.672zM336.935 399.903c2.376.54 4.752.81 7.236.81 3.024 0 5.67-.378 7.83-1.242 2.16-.81 3.834-1.944 4.968-3.402 1.08-1.458 1.674-3.132 1.674-4.968 0-2.214-.594-3.942-1.782-5.184-1.188-1.242-2.538-2.106-4.104-2.592-1.62-.432-3.618-.864-5.994-1.242-1.944-.27-3.294-.54-4.104-.81-.864-.27-1.242-.756-1.242-1.458 0-.594.378-1.08 1.134-1.458.756-.378 1.944-.594 3.564-.594 3.024 0 5.832.756 8.424 2.16l3.078-6.966c-1.404-.756-3.186-1.404-5.238-1.836a31.367 31.367 0 00-6.318-.648c-3.024 0-5.562.432-7.722 1.296-2.16.864-3.78 1.998-4.86 3.456-1.134 1.458-1.674 3.132-1.674 4.968 0 2.268.594 4.05 1.782 5.292 1.188 1.296 2.592 2.16 4.212 2.592 1.62.486 3.618.864 5.994 1.134 1.836.27 3.132.54 3.996.81.864.27 1.296.702 1.296 1.35 0 .648-.378 1.188-1.08 1.512-.702.324-1.89.486-3.51.486a21 21 0 01-5.454-.702c-1.836-.486-3.456-1.134-4.752-1.998l-3.078 7.02c1.404.918 3.348 1.674 5.724 2.214zM395.068 388.185c.108-1.62.162-2.43.162-2.538 0-3.132-.702-5.832-2.106-8.1s-3.24-4.05-5.616-5.238c-2.376-1.188-5.022-1.836-7.938-1.836-3.078 0-5.832.648-8.262 1.944-2.484 1.296-4.374 3.132-5.778 5.4-1.404 2.268-2.052 4.86-2.052 7.722 0 2.916.702 5.562 2.106 7.83 1.404 2.322 3.456 4.104 6.048 5.4 2.592 1.296 5.562 1.944 9.018 1.944 5.454 0 9.612-1.566 12.474-4.752l-5.4-5.616c-1.08.918-2.106 1.566-3.132 1.944-1.026.432-2.214.594-3.618.594-1.89 0-3.456-.378-4.698-1.188-1.242-.81-2.052-1.998-2.484-3.51zm-19.44-9.072c1.08-.864 2.376-1.35 3.996-1.35 1.566 0 2.862.486 3.942 1.35 1.08.918 1.728 2.16 2.052 3.672H373.63c.27-1.512.918-2.754 1.998-3.672zM402.263 360.159v40.068h10.26v-40.068zM467.559 362.427h-29.97v8.262h29.97zm0 14.634h-29.97v7.992h29.97zm-29.97 14.904v8.262h29.97v-8.262zM503.444 373.713c-2.214-2.16-5.13-3.24-8.748-3.24-1.89 0-3.618.324-5.184.972-1.62.648-2.97 1.512-4.104 2.7v-3.186h-9.774v29.268h10.26v-14.148c0-2.268.486-3.996 1.566-5.184 1.08-1.134 2.484-1.728 4.266-1.728 3.186 0 4.806 1.998 4.806 5.994v15.066h10.26v-16.74c0-4.32-1.134-7.614-3.348-9.774zM547.335 370.959h-9.774v3.564c-1.944-2.7-5.022-4.05-9.18-4.05-2.592 0-5.022.594-7.182 1.782-2.214 1.188-3.942 2.808-5.238 4.968-1.296 2.16-1.944 4.59-1.944 7.344 0 2.808.648 5.292 1.944 7.452 1.296 2.16 3.024 3.78 5.238 4.968 2.16 1.188 4.59 1.728 7.182 1.728 3.78 0 6.696-1.134 8.694-3.456v.972c0 2.376-.648 4.104-1.89 5.292-1.296 1.188-3.24 1.782-5.94 1.782-1.782 0-3.564-.27-5.4-.81-1.836-.54-3.294-1.35-4.482-2.322l-3.726 7.182c1.728 1.296 3.888 2.214 6.426 2.862 2.484.648 5.184.972 8.1.972 5.508 0 9.774-1.35 12.744-4.05 2.916-2.7 4.428-6.804 4.428-12.258zm-11.988 17.928c-1.188 1.134-2.7 1.674-4.536 1.674-1.836 0-3.402-.54-4.59-1.674-1.242-1.08-1.836-2.538-1.836-4.32 0-1.728.594-3.186 1.782-4.266 1.188-1.08 2.754-1.674 4.644-1.674 1.836 0 3.402.594 4.59 1.674 1.188 1.08 1.782 2.538 1.782 4.266 0 1.782-.648 3.24-1.836 4.32zM556.177 370.959v29.268h10.26v-29.268zm.594-4.806c1.134 1.08 2.646 1.566 4.536 1.566 1.836 0 3.348-.486 4.536-1.566 1.134-1.08 1.728-2.43 1.728-4.05 0-1.512-.594-2.808-1.728-3.78-1.188-.972-2.7-1.512-4.536-1.512-1.89 0-3.402.54-4.536 1.566-1.188 1.08-1.728 2.376-1.728 3.888 0 1.566.54 2.862 1.728 3.888zM603.112 373.713c-2.214-2.16-5.13-3.24-8.748-3.24-1.89 0-3.618.324-5.184.972-1.62.648-2.97 1.512-4.104 2.7v-3.186h-9.774v29.268h10.26v-14.148c0-2.268.486-3.996 1.566-5.184 1.08-1.134 2.484-1.728 4.266-1.728 3.186 0 4.806 1.998 4.806 5.994v15.066h10.26v-16.74c0-4.32-1.134-7.614-3.348-9.774zM645.275 388.185c.108-1.62.162-2.43.162-2.538 0-3.132-.702-5.832-2.106-8.1s-3.24-4.05-5.616-5.238c-2.376-1.188-5.022-1.836-7.938-1.836-3.078 0-5.832.648-8.262 1.944-2.484 1.296-4.374 3.132-5.778 5.4-1.404 2.268-2.052 4.86-2.052 7.722 0 2.916.702 5.562 2.106 7.83 1.404 2.322 3.456 4.104 6.048 5.4 2.592 1.296 5.562 1.944 9.018 1.944 5.454 0 9.612-1.566 12.474-4.752l-5.4-5.616c-1.08.918-2.106 1.566-3.132 1.944-1.026.432-2.214.594-3.618.594-1.89 0-3.456-.378-4.698-1.188-1.242-.81-2.052-1.998-2.484-3.51zm-19.44-9.072c1.08-.864 2.376-1.35 3.996-1.35 1.566 0 2.862.486 3.942 1.35 1.08.918 1.728 2.16 2.052 3.672h-11.988c.27-1.512.918-2.754 1.998-3.672zM661.218 390.237c-1.188-1.08-2.646-1.674-4.374-1.674-1.836 0-3.294.594-4.428 1.674-1.188 1.134-1.728 2.592-1.728 4.374 0 1.242.27 2.322.81 3.24.54.918 1.35 1.62 2.376 2.052l-2.538 8.802h6.426l3.402-7.884c.756-1.62 1.242-2.862 1.458-3.726.216-.81.324-1.62.324-2.484 0-1.782-.594-3.24-1.728-4.374zM686.214 362.427v37.8h10.692v-37.8zM734.14 373.713c-2.214-2.16-5.13-3.24-8.748-3.24-1.89 0-3.618.324-5.184.972-1.62.648-2.97 1.512-4.104 2.7v-3.186h-9.774v29.268h10.26v-14.148c0-2.268.486-3.996 1.566-5.184 1.08-1.134 2.484-1.728 4.266-1.728 3.186 0 4.806 1.998 4.806 5.994v15.066h10.26v-16.74c0-4.32-1.134-7.614-3.348-9.774zM752.812 398.769c2.538 1.296 5.454 1.944 8.694 1.944 3.294 0 6.156-.702 8.586-2.106 2.376-1.404 4.104-3.402 5.13-5.94l-7.938-4.05c-1.35 2.646-3.294 3.942-5.832 3.942-1.836 0-3.402-.594-4.59-1.836-1.188-1.242-1.782-2.97-1.782-5.184 0-2.16.594-3.834 1.782-5.076 1.188-1.188 2.754-1.836 4.59-1.836 2.538 0 4.482 1.35 5.832 3.942l7.938-4.05c-1.026-2.484-2.754-4.482-5.13-5.886-2.43-1.404-5.292-2.16-8.586-2.16-3.24 0-6.156.648-8.694 1.944-2.592 1.296-4.59 3.078-5.994 5.346-1.404 2.268-2.106 4.86-2.106 7.776 0 2.916.702 5.562 2.106 7.83 1.404 2.322 3.402 4.104 5.994 5.4zM782.389 398.985c1.188 1.188 2.646 1.728 4.374 1.728 1.728 0 3.186-.54 4.374-1.728 1.188-1.134 1.782-2.592 1.782-4.374 0-1.782-.594-3.24-1.728-4.374-1.188-1.08-2.646-1.674-4.428-1.674s-3.24.594-4.428 1.674c-1.188 1.134-1.728 2.592-1.728 4.374 0 1.782.594 3.24 1.782 4.374z"/></g></g></svg>
