<svg width="20" height="20" viewBox="0 0 20 20" fill="none" xmlns="http://www.w3.org/2000/svg">
<rect width="20" height="20" rx="5" fill="#3B82F6"/>
<path d="M4.98776 9.87113C4.3643 9.32561 3.41666 9.38879 2.87113 10.0122C2.32561 10.6357 2.38879 11.5833 3.01224 12.1289L4.98776 9.87113ZM8 14.5L7.01224 15.6289L8.10088 16.5814L9.0923 15.528L8 14.5ZM17.0923 7.02805C17.6601 6.42479 17.6313 5.47547 17.028 4.9077C16.4248 4.33993 15.4755 4.36869 14.9077 4.97195L17.0923 7.02805ZM3.01224 12.1289L7.01224 15.6289L8.98776 13.3711L4.98776 9.87113L3.01224 12.1289ZM9.0923 15.528L17.0923 7.02805L14.9077 4.97195L6.9077 13.472L9.0923 15.528Z" fill="white"/>
</svg>
 