<svg width="151" height="32" viewBox="0 0 151 32" fill="none" xmlns="http://www.w3.org/2000/svg">
<path d="M38.8713 8.62919H50.6778L50.9048 13.3518H50.4961C49.9361 11.717 49.2852 10.6045 48.5435 10.0142C47.817 9.42386 46.7272 9.1287 45.2741 9.1287H44.6383V16.5077H45.66C46.3866 16.5077 46.9921 16.2428 47.4764 15.7131C47.9608 15.1833 48.2938 14.4567 48.4754 13.5334H48.816V20.254H48.43C48.1878 19.1188 47.8473 18.309 47.4083 17.8246C46.9845 17.3402 46.4017 17.098 45.66 17.098H44.6383V24.023H47.4537V24.5225H38.8713V24.023H40.2109V9.1287H38.8713V8.62919Z" fill="black"/>
<path d="M58.261 20.0497V18.1198C58.261 16.6515 58.1777 15.5844 58.0112 14.9184C57.8599 14.2373 57.4966 13.8967 56.9214 13.8967C56.5884 13.8967 56.3159 13.9951 56.104 14.1918C55.9072 14.3735 55.7635 14.6838 55.6726 15.1227C55.5364 15.8039 55.4683 16.8407 55.4683 18.2333V20.0042C55.4683 21.6541 55.5137 22.6456 55.6045 22.9786C55.7105 23.3116 55.8164 23.584 55.9224 23.7959C56.0889 24.1592 56.4143 24.3408 56.8987 24.3408C57.489 24.3408 57.875 24.0003 58.0566 23.3191C58.1929 22.8348 58.261 21.7449 58.261 20.0497ZM56.8533 24.7495C54.9612 24.7495 53.5308 24.2652 52.5621 23.2964C51.5934 22.3277 51.109 20.9427 51.109 19.1415C51.109 17.3251 51.6236 15.9325 52.6529 14.9638C53.6973 13.9799 55.158 13.488 57.0349 13.488C58.9118 13.488 60.312 13.9421 61.2353 14.8503C62.1586 15.7433 62.6203 17.1132 62.6203 18.9598C62.6203 22.8196 60.6979 24.7495 56.8533 24.7495Z" fill="black"/>
<path d="M72.3599 12.5344L72.9956 12.1484C73.0864 11.6792 72.9048 11.4446 72.4507 11.4446C71.7998 11.4446 71.4744 11.9441 71.4744 12.9431C71.4744 13.3366 71.5274 13.7907 71.6333 14.3054C72.7837 15.0773 73.3589 16.0688 73.3589 17.2797C73.3589 18.4755 72.9426 19.4064 72.1101 20.0724C71.2776 20.7384 70.15 21.0714 68.7271 21.0714C68.1368 21.0714 67.5238 21.0108 66.888 20.8897C66.222 21.3136 65.889 21.6314 65.889 21.8433C65.889 22.0552 66.3734 22.1612 67.3421 22.1612H69.658C73.094 22.1612 74.812 23.3948 74.812 25.8621C74.812 27.1941 74.2898 28.2461 73.2454 29.018C72.2161 29.8051 70.604 30.1987 68.4093 30.1987C64.6706 30.1987 62.8012 29.3889 62.8012 27.7693C62.8012 26.8913 63.384 26.2859 64.5495 25.9529L65.9117 26.5659C65.7906 27.0049 65.7301 27.4211 65.7301 27.8147C65.7301 29.1164 66.6988 29.7673 68.6363 29.7673C69.817 29.7673 70.7251 29.5478 71.3609 29.1088C71.9966 28.6699 72.3145 28.125 72.3145 27.4741C72.3145 26.8232 72.1177 26.3843 71.7241 26.1572C71.3457 25.9453 70.5813 25.8394 69.431 25.8394H67.2286C66.0026 25.8394 65.1246 25.635 64.5949 25.2263C64.0651 24.8176 63.8002 24.3181 63.8002 23.7278C63.8002 23.1224 63.9894 22.6229 64.3678 22.2293C64.7462 21.8206 65.4198 21.3211 66.3885 20.7308C64.6327 20.2313 63.7548 19.0809 63.7548 17.2797C63.7548 16.1444 64.1635 15.2287 64.9808 14.5324C65.7982 13.8361 67.0243 13.488 68.659 13.488C69.6429 13.488 70.483 13.6772 71.1792 14.0556C71.0884 13.6469 71.043 13.2761 71.043 12.9431C71.043 12.0954 71.27 11.4824 71.7241 11.104C72.1782 10.7256 72.6853 10.5364 73.2454 10.5364C73.8054 10.5364 74.2519 10.6878 74.5849 10.9905C74.9331 11.2781 75.1071 11.6792 75.1071 12.1938C75.1071 12.7085 74.9709 13.0945 74.6985 13.3518C74.426 13.594 74.093 13.715 73.6995 13.715C73.321 13.715 73.0032 13.6167 72.7459 13.4199C72.5037 13.208 72.375 12.9128 72.3599 12.5344ZM67.5465 16.7802V18.0062C67.5465 19.0204 67.6297 19.7091 67.7962 20.0724C67.9779 20.4356 68.2428 20.6173 68.5909 20.6173C68.9542 20.6173 69.2115 20.4432 69.3629 20.0951C69.5294 19.7318 69.6126 18.9977 69.6126 17.8927V16.7802C69.6126 15.5995 69.5369 14.8276 69.3856 14.4643C69.2342 14.0859 68.9769 13.8967 68.6136 13.8967C68.2655 13.8967 68.0006 14.0935 67.8189 14.487C67.6373 14.8654 67.5465 15.6298 67.5465 16.7802Z" fill="black"/>
<path d="M83.4048 18.4149C83.4048 16.8559 83.3291 15.8114 83.1778 15.2817C83.0264 14.7368 82.7312 14.4643 82.2923 14.4643C81.8533 14.4643 81.4598 14.7368 81.1116 15.2817C80.7635 15.8266 80.5894 16.5758 80.5894 17.5294V21.7525C80.5894 22.4034 80.7181 22.9559 80.9754 23.41C81.2479 23.864 81.6263 24.0911 82.1107 24.0911C82.6102 24.0911 82.9507 23.7581 83.1324 23.0921C83.314 22.4261 83.4048 21.2606 83.4048 19.5956V18.4149ZM80.5894 7.49396V15.4406C81.1646 14.1389 82.1485 13.488 83.541 13.488C86.3716 13.488 87.7868 15.3725 87.7868 19.1415C87.7868 21.0638 87.3933 22.4791 86.6062 23.3872C85.8342 24.2954 84.6687 24.7495 83.1097 24.7495C82.3226 24.7495 81.7171 24.6284 81.2933 24.3863C80.8846 24.1441 80.6046 23.743 80.4532 23.1829L80.2943 24.5225H75.1176V24.1138H76.3664V7.90264H75.1176V7.49396H80.5894Z" fill="black"/>
<path d="M94.4368 24.7495C92.4842 24.7495 91.016 24.25 90.0321 23.251C89.0634 22.2369 88.579 20.8368 88.579 19.0507C88.579 17.2494 89.1239 15.872 90.2137 14.9184C91.3187 13.9648 92.7188 13.488 94.4141 13.488C97.8501 13.488 99.5 15.2136 99.3637 18.6647H92.961V19.5502C92.961 21.0335 93.1502 22.1536 93.5286 22.9104C93.907 23.6673 94.5655 24.0457 95.5039 24.0457C97.2598 24.0457 98.4101 23.1072 98.9551 21.2303L99.3637 21.2984C99.0761 22.3882 98.5539 23.2359 97.7971 23.8413C97.0554 24.4468 95.9353 24.7495 94.4368 24.7495ZM92.9837 18.2106H95.3223V17.098C95.3223 15.872 95.2466 15.0395 95.0953 14.6005C94.959 14.1464 94.6714 13.9194 94.2325 13.9194C93.8087 13.9194 93.4908 14.1616 93.2789 14.6459C93.0821 15.1152 92.9837 15.9325 92.9837 17.098V18.2106Z" fill="black"/>
<path d="M100.218 13.715H105.69V15.8039C105.932 15.1076 106.303 14.5476 106.802 14.1237C107.302 13.6999 108.059 13.488 109.073 13.488C111.419 13.488 112.592 14.7519 112.592 17.2797V24.1138H113.864V24.5225H107.438V24.1138H108.369V16.7348C108.369 15.8266 108.308 15.2438 108.187 14.9865C108.066 14.7141 107.847 14.5778 107.529 14.5778C107.045 14.5778 106.613 14.8957 106.235 15.5314C105.871 16.1672 105.69 16.9391 105.69 17.8473V24.1138H106.666V24.5225H100.218V24.1138H101.467V14.1237H100.218V13.715Z" fill="black"/>
<path d="M118.773 19.8226C118.773 21.4119 118.856 22.4715 119.022 23.0013C119.189 23.5159 119.492 23.7732 119.93 23.7732C120.385 23.7732 120.771 23.5765 121.088 23.1829C121.421 22.7894 121.588 22.2066 121.588 21.4346V16.485C121.588 15.8342 121.459 15.2817 121.202 14.8276C120.945 14.3735 120.566 14.1464 120.067 14.1464C119.567 14.1464 119.227 14.4794 119.045 15.1454C118.863 15.8114 118.773 16.977 118.773 18.642V19.8226ZM121.883 24.5225L121.633 22.9332C121.119 24.1441 120.074 24.7495 118.5 24.7495C117.198 24.7495 116.184 24.2803 115.458 23.3418C114.746 22.4034 114.391 21.0033 114.391 19.1415C114.391 15.3725 115.889 13.488 118.886 13.488C120.218 13.488 121.096 13.8588 121.52 14.6005V7.90264H120.135V7.49396H125.811V24.1138H126.924V24.5225H121.883Z" fill="black"/>
<path d="M133.483 24.7495C131.53 24.7495 130.062 24.25 129.078 23.251C128.109 22.2369 127.625 20.8368 127.625 19.0507C127.625 17.2494 128.17 15.872 129.26 14.9184C130.365 13.9648 131.765 13.488 133.46 13.488C136.896 13.488 138.546 15.2136 138.41 18.6647H132.007V19.5502C132.007 21.0335 132.196 22.1536 132.574 22.9104C132.953 23.6673 133.611 24.0457 134.55 24.0457C136.306 24.0457 137.456 23.1072 138.001 21.2303L138.41 21.2984C138.122 22.3882 137.6 23.2359 136.843 23.8413C136.101 24.4468 134.981 24.7495 133.483 24.7495ZM132.03 18.2106H134.368V17.098C134.368 15.872 134.292 15.0395 134.141 14.6005C134.005 14.1464 133.717 13.9194 133.278 13.9194C132.855 13.9194 132.537 14.1616 132.325 14.6459C132.128 15.1152 132.03 15.9325 132.03 17.098V18.2106Z" fill="black"/>
<path d="M146.802 14.3508C146.242 14.3508 145.75 14.7141 145.326 15.4406C144.902 16.1672 144.69 17.0299 144.69 18.0289V24.1138H146.302V24.5225H139.218V24.1138H140.467V14.1237H139.218V13.715H144.69V15.8947C144.887 15.1227 145.265 14.5324 145.826 14.1237C146.386 13.6999 147.021 13.488 147.733 13.488C148.444 13.488 149.019 13.6923 149.458 14.101C149.912 14.4946 150.139 15.0622 150.139 15.8039C150.139 16.5304 149.973 17.0905 149.64 17.484C149.307 17.8776 148.792 18.0743 148.096 18.0743C147.415 18.0743 146.908 17.8473 146.575 17.3932C146.257 16.9391 146.219 16.3109 146.461 15.5087H147.279C147.657 14.7368 147.498 14.3508 146.802 14.3508Z" fill="black"/>
<path d="M7.1181 0L0 19.7008L7.1181 32L14.6063 19.7008L7.1181 0Z" fill="#FE346E"/>
<path fill-rule="evenodd" clip-rule="evenodd" d="M12.1577 26.3414L15.4319 31.9989L22.7284 20.0146L15.4319 0L12.1618 9.4365L16.1161 19.8399L12.1577 26.3414Z" fill="#FF7315"/>
<path fill-rule="evenodd" clip-rule="evenodd" d="M20.4717 26.3415L23.7459 31.9989L31.0423 20.0146L23.7459 0L20.401 9.65222L24.233 20.1636L20.4717 26.3415Z" fill="#7E0CF5"/>
</svg>
