<svg width="410" height="242" viewBox="0 0 410 242" fill="none" xmlns="http://www.w3.org/2000/svg">
<rect width="410" height="242" rx="34" fill="white"/>
<path d="M32.5107 151.716H69.1699L69.8749 166.38H68.6059C66.867 161.304 64.846 157.85 62.5431 156.017C60.2871 154.184 56.9032 153.267 52.3913 153.267H50.4173V176.179H53.5898C55.8457 176.179 57.7257 175.357 59.2297 173.712C60.7336 172.067 61.7676 169.811 62.3316 166.944H63.3891V187.812H62.1906C61.4386 184.287 60.3811 181.772 59.0182 180.268C57.7022 178.764 55.8927 178.012 53.5898 178.012H50.4173V199.514H59.1592V201.065H32.5107V199.514H36.6702V153.267H32.5107V151.716Z" fill="black"/>
<path d="M92.7159 187.177V181.185C92.7159 176.626 92.4574 173.312 91.9404 171.244C91.4704 169.129 90.3424 168.072 88.5565 168.072C87.5225 168.072 86.6765 168.377 86.0185 168.988C85.4075 169.552 84.961 170.516 84.679 171.879C84.2561 173.994 84.0446 177.213 84.0446 181.537V187.036C84.0446 192.159 84.1856 195.237 84.4675 196.271C84.7965 197.305 85.1255 198.151 85.4545 198.809C85.9715 199.937 86.982 200.501 88.486 200.501C90.3189 200.501 91.5174 199.444 92.0814 197.329C92.5044 195.825 92.7159 192.441 92.7159 187.177ZM88.345 201.77C82.4701 201.77 78.0287 200.266 75.0208 197.258C72.0128 194.25 70.5089 189.95 70.5089 184.357C70.5089 178.717 72.1068 174.393 75.3027 171.385C78.5457 168.33 83.0811 166.803 88.9089 166.803C94.7368 166.803 99.0842 168.213 101.951 171.033C104.818 173.806 106.252 178.059 106.252 183.793C106.252 195.778 100.283 201.77 88.345 201.77Z" fill="black"/>
<path d="M136.493 163.842L138.467 162.644C138.749 161.187 138.185 160.458 136.775 160.458C134.754 160.458 133.744 162.009 133.744 165.111C133.744 166.333 133.908 167.743 134.237 169.341C137.809 171.738 139.595 174.816 139.595 178.576C139.595 182.289 138.303 185.18 135.718 187.248C133.133 189.315 129.631 190.349 125.213 190.349C123.38 190.349 121.477 190.161 119.503 189.785C117.435 191.101 116.401 192.088 116.401 192.746C116.401 193.404 117.905 193.733 120.913 193.733H128.104C138.773 193.733 144.107 197.564 144.107 205.225C144.107 209.361 142.486 212.627 139.243 215.024C136.047 217.468 131.041 218.69 124.226 218.69C112.618 218.69 106.813 216.175 106.813 211.147C106.813 208.421 108.623 206.541 112.242 205.507L116.472 207.41C116.096 208.773 115.908 210.066 115.908 211.288C115.908 215.329 118.916 217.35 124.931 217.35C128.597 217.35 131.417 216.669 133.391 215.306C135.365 213.943 136.352 212.251 136.352 210.23C136.352 208.209 135.741 206.846 134.519 206.141C133.344 205.483 130.971 205.154 127.399 205.154H120.561C116.754 205.154 114.028 204.52 112.383 203.251C110.738 201.982 109.915 200.431 109.915 198.598C109.915 196.718 110.503 195.167 111.678 193.945C112.853 192.676 114.944 191.125 117.952 189.292C112.5 187.741 109.774 184.169 109.774 178.576C109.774 175.051 111.043 172.208 113.581 170.046C116.119 167.884 119.926 166.803 125.002 166.803C128.057 166.803 130.665 167.39 132.827 168.565C132.545 167.296 132.404 166.145 132.404 165.111C132.404 162.479 133.109 160.576 134.519 159.401C135.929 158.226 137.504 157.638 139.243 157.638C140.982 157.638 142.368 158.108 143.402 159.048C144.483 159.941 145.024 161.187 145.024 162.785C145.024 164.383 144.601 165.581 143.755 166.38C142.909 167.132 141.875 167.508 140.653 167.508C139.478 167.508 138.491 167.202 137.692 166.592C136.94 165.934 136.54 165.017 136.493 163.842ZM121.548 177.025V180.832C121.548 183.981 121.806 186.12 122.323 187.248C122.887 188.376 123.709 188.94 124.79 188.94C125.918 188.94 126.717 188.399 127.187 187.318C127.704 186.19 127.963 183.911 127.963 180.48V177.025C127.963 173.359 127.728 170.962 127.258 169.834C126.788 168.659 125.989 168.072 124.861 168.072C123.78 168.072 122.957 168.683 122.394 169.905C121.83 171.08 121.548 173.453 121.548 177.025Z" fill="black"/>
<path d="M170.788 182.101C170.788 177.26 170.553 174.017 170.083 172.372C169.613 170.68 168.696 169.834 167.334 169.834C165.971 169.834 164.749 170.68 163.668 172.372C162.587 174.064 162.046 176.391 162.046 179.352V192.464C162.046 194.485 162.446 196.201 163.245 197.611C164.091 199.021 165.266 199.726 166.77 199.726C168.32 199.726 169.378 198.692 169.942 196.624C170.506 194.556 170.788 190.937 170.788 185.767V182.101ZM162.046 148.191V172.866C163.832 168.824 166.887 166.803 171.211 166.803C180 166.803 184.394 172.654 184.394 184.357C184.394 190.326 183.172 194.72 180.728 197.54C178.331 200.36 174.712 201.77 169.871 201.77C167.428 201.77 165.548 201.394 164.232 200.642C162.963 199.89 162.093 198.645 161.623 196.906L161.13 201.065H145.056V199.796H148.933V149.46H145.056V148.191H162.046Z" fill="black"/>
<path d="M205.042 201.77C198.98 201.77 194.421 200.219 191.366 197.117C188.358 193.968 186.854 189.621 186.854 184.075C186.854 178.482 188.546 174.205 191.93 171.244C195.361 168.283 199.708 166.803 204.972 166.803C215.641 166.803 220.764 172.161 220.341 182.877H200.46V185.626C200.46 190.232 201.048 193.71 202.223 196.06C203.397 198.41 205.442 199.585 208.356 199.585C213.808 199.585 217.38 196.671 219.072 190.843L220.341 191.054C219.448 194.438 217.826 197.07 215.476 198.95C213.173 200.83 209.695 201.77 205.042 201.77ZM200.531 181.467H207.792V178.012C207.792 174.205 207.557 171.62 207.087 170.257C206.664 168.847 205.771 168.142 204.408 168.142C203.092 168.142 202.105 168.894 201.447 170.398C200.836 171.855 200.531 174.393 200.531 178.012V181.467Z" fill="black"/>
<path d="M222.993 167.508H239.983V173.994C240.735 171.832 241.887 170.093 243.438 168.777C244.989 167.461 247.339 166.803 250.488 166.803C257.772 166.803 261.415 170.727 261.415 178.576V199.796H265.363V201.065H245.412V199.796H248.302V176.884C248.302 174.064 248.114 172.255 247.738 171.456C247.362 170.61 246.681 170.187 245.694 170.187C244.19 170.187 242.85 171.174 241.675 173.148C240.547 175.122 239.983 177.519 239.983 180.339V199.796H243.015V201.065H222.993V199.796H226.871V168.777H222.993V167.508Z" fill="black"/>
<path d="M280.605 186.472C280.605 191.407 280.864 194.697 281.381 196.342C281.898 197.94 282.838 198.739 284.201 198.739C285.611 198.739 286.809 198.128 287.796 196.906C288.83 195.684 289.347 193.874 289.347 191.477V176.109C289.347 174.088 288.948 172.372 288.149 170.962C287.35 169.552 286.175 168.847 284.624 168.847C283.073 168.847 282.015 169.881 281.451 171.949C280.887 174.017 280.605 177.636 280.605 182.806V186.472ZM290.264 201.065L289.488 196.13C287.89 199.89 284.647 201.77 279.759 201.77C275.717 201.77 272.568 200.313 270.312 197.399C268.104 194.485 266.999 190.138 266.999 184.357C266.999 172.654 271.652 166.803 280.958 166.803C285.094 166.803 287.82 167.954 289.136 170.257V149.46H284.835V148.191H302.46V199.796H305.914V201.065H290.264Z" fill="black"/>
<path d="M326.281 201.77C320.218 201.77 315.659 200.219 312.604 197.117C309.596 193.968 308.092 189.621 308.092 184.075C308.092 178.482 309.784 174.205 313.168 171.244C316.599 168.283 320.946 166.803 326.21 166.803C336.879 166.803 342.002 172.161 341.579 182.877H321.698V185.626C321.698 190.232 322.286 193.71 323.461 196.06C324.636 198.41 326.68 199.585 329.594 199.585C335.046 199.585 338.618 196.671 340.31 190.843L341.579 191.054C340.686 194.438 339.064 197.07 336.714 198.95C334.411 200.83 330.933 201.77 326.281 201.77ZM321.769 181.467H329.03V178.012C329.03 174.205 328.795 171.62 328.325 170.257C327.902 168.847 327.009 168.142 325.646 168.142C324.33 168.142 323.343 168.894 322.685 170.398C322.074 171.855 321.769 174.393 321.769 178.012V181.467Z" fill="black"/>
<path d="M367.637 169.482C365.898 169.482 364.37 170.61 363.054 172.866C361.738 175.122 361.08 177.801 361.08 180.903V199.796H366.086V201.065H344.09V199.796H347.968V168.777H344.09V167.508H361.08V174.276C361.691 171.879 362.866 170.046 364.605 168.777C366.344 167.461 368.318 166.803 370.527 166.803C372.736 166.803 374.522 167.437 375.885 168.706C377.295 169.928 378 171.691 378 173.994C378 176.25 377.483 177.989 376.449 179.211C375.415 180.433 373.817 181.044 371.655 181.044C369.54 181.044 367.966 180.339 366.932 178.929C365.945 177.519 365.827 175.568 366.579 173.077H369.117C370.292 170.68 369.799 169.482 367.637 169.482Z" fill="black"/>
<path d="M51.1018 22L29 83.1713L51.1018 121.361L74.3528 83.1713L51.1018 22Z" fill="#FE346E"/>
<path fill-rule="evenodd" clip-rule="evenodd" d="M66.751 103.791L76.9175 121.357L99.573 84.1457L76.9175 22L66.7637 51.3005L79.0418 83.6031L66.751 103.791Z" fill="#FF7315"/>
<path fill-rule="evenodd" clip-rule="evenodd" d="M92.5655 103.79L102.732 121.357L125.388 84.1457L102.732 22L92.3462 51.9711L104.244 84.608L92.5655 103.79Z" fill="#7E0CF5"/>
</svg>
