<svg width="349" height="197" viewBox="0 0 349 197" fill="none" xmlns="http://www.w3.org/2000/svg">
<path d="M3.5108 129.717H40.17L40.875 144.381H39.606C37.867 139.305 35.8461 135.851 33.5431 134.018C31.2872 132.185 27.9033 131.268 23.3914 131.268H21.4174V154.18H24.5898C26.8458 154.18 28.7257 153.358 30.2297 151.713C31.7337 150.068 32.7677 147.812 33.3316 144.945H34.3891V165.812H33.1906C32.4387 162.287 31.3812 159.773 30.0182 158.269C28.7022 156.765 26.8928 156.013 24.5898 156.013H21.4174V177.515H30.1592V179.066H3.5108V177.515H7.67021V131.268H3.5108V129.717Z" fill="black"/>
<path d="M63.7159 165.178V159.186C63.7159 154.627 63.4574 151.313 62.9404 149.245C62.4705 147.13 61.3425 146.073 59.5565 146.073C58.5225 146.073 57.6766 146.378 57.0186 146.989C56.4076 147.553 55.9611 148.517 55.6791 149.88C55.2561 151.995 55.0446 155.214 55.0446 159.538V165.037C55.0446 170.16 55.1856 173.238 55.4676 174.272C55.7966 175.306 56.1256 176.152 56.4546 176.81C56.9716 177.938 57.982 178.502 59.486 178.502C61.319 178.502 62.5175 177.445 63.0814 175.33C63.5044 173.826 63.7159 170.442 63.7159 165.178ZM59.345 179.771C53.4701 179.771 49.0287 178.267 46.0208 175.259C43.0129 172.251 41.5089 167.951 41.5089 162.358C41.5089 156.718 43.1069 152.394 46.3028 149.386C49.5457 146.331 54.0811 144.804 59.909 144.804C65.7369 144.804 70.0843 146.214 72.9512 149.034C75.8182 151.807 77.2516 156.06 77.2516 161.794C77.2516 173.779 71.2828 179.771 59.345 179.771Z" fill="black"/>
<path d="M107.493 141.843L109.467 140.644C109.749 139.187 109.185 138.459 107.775 138.459C105.754 138.459 104.744 140.01 104.744 143.112C104.744 144.334 104.908 145.744 105.237 147.342C108.809 149.739 110.595 152.817 110.595 156.577C110.595 160.29 109.303 163.18 106.718 165.248C104.133 167.316 100.631 168.35 96.2135 168.35C94.3805 168.35 92.4771 168.162 90.5031 167.786C88.4352 169.102 87.4012 170.089 87.4012 170.747C87.4012 171.405 88.9052 171.734 91.9131 171.734H99.1039C109.773 171.734 115.107 175.565 115.107 183.225C115.107 187.361 113.486 190.628 110.243 193.025C107.047 195.469 102.041 196.691 95.2265 196.691C83.6178 196.691 77.8134 194.176 77.8134 189.147C77.8134 186.421 79.6229 184.541 83.2418 183.507L87.4717 185.411C87.0957 186.774 86.9077 188.066 86.9077 189.288C86.9077 193.33 89.9156 195.351 95.9315 195.351C99.5974 195.351 102.417 194.67 104.391 193.307C106.365 191.944 107.352 190.252 107.352 188.231C107.352 186.21 106.741 184.847 105.519 184.142C104.344 183.484 101.971 183.155 98.399 183.155H91.5606C87.7537 183.155 85.0277 182.52 83.3828 181.252C81.7378 179.983 80.9153 178.432 80.9153 176.599C80.9153 174.719 81.5028 173.168 82.6778 171.946C83.8528 170.677 85.9442 169.126 88.9522 167.293C83.5003 165.742 80.7743 162.17 80.7743 156.577C80.7743 153.052 82.0433 150.209 84.5813 148.047C87.1192 145.885 90.9261 144.804 96.002 144.804C99.0569 144.804 101.665 145.391 103.827 146.566C103.545 145.297 103.404 144.146 103.404 143.112C103.404 140.48 104.109 138.576 105.519 137.401C106.929 136.227 108.504 135.639 110.243 135.639C111.982 135.639 113.368 136.109 114.402 137.049C115.483 137.942 116.024 139.187 116.024 140.785C116.024 142.383 115.601 143.582 114.755 144.381C113.909 145.133 112.875 145.509 111.653 145.509C110.478 145.509 109.491 145.203 108.692 144.592C107.94 143.934 107.54 143.018 107.493 141.843ZM92.5476 155.026V158.833C92.5476 161.982 92.8061 164.12 93.3231 165.248C93.8871 166.376 94.7095 166.94 95.7905 166.94C96.9185 166.94 97.7175 166.4 98.1875 165.319C98.7045 164.191 98.9629 161.911 98.9629 158.481V155.026C98.9629 151.36 98.7279 148.963 98.2579 147.835C97.788 146.66 96.989 146.073 95.861 146.073C94.78 146.073 93.9576 146.684 93.3936 147.906C92.8296 149.081 92.5476 151.454 92.5476 155.026Z" fill="black"/>
<path d="M141.788 160.102C141.788 155.261 141.553 152.018 141.083 150.373C140.613 148.681 139.697 147.835 138.334 147.835C136.971 147.835 135.749 148.681 134.668 150.373C133.587 152.065 133.046 154.392 133.046 157.353V170.465C133.046 172.486 133.446 174.202 134.245 175.612C135.091 177.022 136.266 177.727 137.77 177.727C139.321 177.727 140.378 176.693 140.942 174.625C141.506 172.557 141.788 168.938 141.788 163.768V160.102ZM133.046 126.192V150.867C134.832 146.825 137.887 144.804 142.211 144.804C151 144.804 155.394 150.655 155.394 162.358C155.394 168.327 154.172 172.721 151.728 175.541C149.331 178.361 145.712 179.771 140.872 179.771C138.428 179.771 136.548 179.395 135.232 178.643C133.963 177.891 133.093 176.646 132.623 174.907L132.13 179.066H116.056V177.797H119.933V127.461H116.056V126.192H133.046Z" fill="black"/>
<path d="M176.043 179.771C169.98 179.771 165.421 178.22 162.366 175.118C159.358 171.969 157.854 167.622 157.854 162.076C157.854 156.483 159.546 152.206 162.93 149.245C166.361 146.284 170.708 144.804 175.972 144.804C186.641 144.804 191.764 150.162 191.341 160.877H171.46V163.627C171.46 168.233 172.048 171.711 173.223 174.061C174.398 176.411 176.442 177.586 179.356 177.586C184.808 177.586 188.38 174.672 190.072 168.844L191.341 169.055C190.448 172.439 188.826 175.071 186.476 176.951C184.173 178.831 180.695 179.771 176.043 179.771ZM171.531 159.467H178.792V156.013C178.792 152.206 178.557 149.621 178.087 148.258C177.664 146.848 176.771 146.143 175.408 146.143C174.092 146.143 173.105 146.895 172.447 148.399C171.836 149.856 171.531 152.394 171.531 156.013V159.467Z" fill="black"/>
<path d="M193.993 145.509H210.983V151.995C211.735 149.833 212.887 148.094 214.438 146.778C215.989 145.462 218.339 144.804 221.488 144.804C228.772 144.804 232.415 148.728 232.415 156.577V177.797H236.363V179.066H216.412V177.797H219.302V154.885C219.302 152.065 219.114 150.256 218.738 149.457C218.362 148.611 217.681 148.188 216.694 148.188C215.19 148.188 213.85 149.175 212.675 151.149C211.547 153.123 210.983 155.52 210.983 158.34V177.797H214.015V179.066H193.993V177.797H197.871V146.778H193.993V145.509Z" fill="black"/>
<path d="M251.605 164.473C251.605 169.408 251.864 172.698 252.381 174.343C252.898 175.941 253.838 176.74 255.201 176.74C256.611 176.74 257.809 176.129 258.796 174.907C259.83 173.685 260.347 171.875 260.347 169.478V154.11C260.347 152.089 259.948 150.373 259.149 148.963C258.35 147.553 257.175 146.848 255.624 146.848C254.073 146.848 253.015 147.882 252.451 149.95C251.887 152.018 251.605 155.637 251.605 160.807V164.473ZM261.264 179.066L260.488 174.131C258.89 177.891 255.647 179.771 250.759 179.771C246.717 179.771 243.568 178.314 241.313 175.4C239.104 172.486 237.999 168.139 237.999 162.358C237.999 150.655 242.652 144.804 251.958 144.804C256.094 144.804 258.82 145.955 260.136 148.258V127.461H255.835V126.192H273.46V177.797H276.914V179.066H261.264Z" fill="black"/>
<path d="M297.281 179.771C291.218 179.771 286.659 178.22 283.604 175.118C280.596 171.969 279.092 167.622 279.092 162.076C279.092 156.483 280.784 152.206 284.168 149.245C287.599 146.284 291.946 144.804 297.21 144.804C307.879 144.804 313.002 150.162 312.579 160.877H292.698V163.627C292.698 168.233 293.286 171.711 294.461 174.061C295.636 176.411 297.68 177.586 300.594 177.586C306.046 177.586 309.618 174.672 311.31 168.844L312.579 169.055C311.686 172.439 310.064 175.071 307.714 176.951C305.411 178.831 301.933 179.771 297.281 179.771ZM292.769 159.467H300.03V156.013C300.03 152.206 299.795 149.621 299.325 148.258C298.902 146.848 298.009 146.143 296.646 146.143C295.33 146.143 294.343 146.895 293.685 148.399C293.074 149.856 292.769 152.394 292.769 156.013V159.467Z" fill="black"/>
<path d="M338.637 147.483C336.898 147.483 335.37 148.611 334.054 150.867C332.738 153.123 332.08 155.802 332.08 158.904V177.797H337.086V179.066H315.09V177.797H318.968V146.778H315.09V145.509H332.08V152.277C332.691 149.88 333.866 148.047 335.605 146.778C337.344 145.462 339.318 144.804 341.527 144.804C343.736 144.804 345.522 145.438 346.885 146.707C348.295 147.929 349 149.692 349 151.995C349 154.251 348.483 155.99 347.449 157.212C346.415 158.434 344.817 159.045 342.655 159.045C340.54 159.045 338.966 158.34 337.932 156.93C336.945 155.52 336.827 153.569 337.579 151.078H340.117C341.292 148.681 340.799 147.483 338.637 147.483Z" fill="black"/>
<path d="M22.1018 0L0 61.1713L22.1018 99.3605L45.3528 61.1713L22.1018 0Z" fill="#FE346E"/>
<path fill-rule="evenodd" clip-rule="evenodd" d="M37.7511 81.7906L47.9176 99.357L70.5731 62.1457L47.9176 0L37.7639 29.3005L50.0419 61.6031L37.7511 81.7906Z" fill="#FF7315"/>
<path fill-rule="evenodd" clip-rule="evenodd" d="M63.5652 81.79L73.7321 99.357L96.3876 62.1457L73.7321 0L63.3459 29.9711L75.2439 62.608L63.5652 81.79Z" fill="#7E0CF5"/>
</svg>
