<svg width="40" height="40" viewBox="0 0 40 40" fill="none" xmlns="http://www.w3.org/2000/svg">
<path d="M33.513 9.54162C29.6256 4.87337 27.6819 2.53924 25.5223 1.40519C21.859 -0.518443 17.4724 -0.464047 13.8579 1.54983C11.727 2.73709 9.82998 5.13364 6.03589 9.92675C2.88827 13.9032 1.31446 15.8914 0.633429 17.9268C-0.525049 21.3892 -0.0797039 25.1878 1.84821 28.2884C2.98157 30.1111 4.96041 31.6718 8.91808 34.7931C12.0275 37.2455 13.5823 38.4717 15.2398 39.1313C18.054 40.2512 21.1832 40.2896 24.0239 39.2389C25.6971 38.62 27.2931 37.4235 30.485 35.0306C34.743 31.8383 36.8721 30.2421 38.0686 28.3713C40.0955 25.2023 40.555 21.278 39.3149 17.7265C38.5829 15.6299 36.8929 13.6005 33.513 9.54162Z" fill="#000000"/>
</svg>
