<svg width="14" height="14" viewBox="0 0 14 14" fill="none" xmlns="http://www.w3.org/2000/svg">
<path fill-rule="evenodd" clip-rule="evenodd" d="M7 0C6.10785 0 5.38462 0.723232 5.38462 1.61538V5.38461H1.61538C0.723232 5.38461 0 6.10785 0 7C0 7.89215 0.723232 8.61538 1.61538 8.61538H5.38462V12.3846C5.38462 13.2768 6.10785 14 7 14C7.89215 14 8.61539 13.2768 8.61539 12.3846V8.61538H12.3846C13.2768 8.61538 14 7.89215 14 7C14 6.10785 13.2768 5.38462 12.3846 5.38462H8.61539V1.61538C8.61539 0.723232 7.89215 0 7 0Z" fill="#6B7280"/>
</svg>
